<svg xmlns="http://www.w3.org/2000/svg" width="256" height="256"><defs><path id="a" d="M0 0h256v256H0z"/></defs><path clip-path="url(#a)" fill="#61656A" d="M61 164.6a30.5 30.5 0 1 0 0 61 30.5 30.5 0 0 0 0-61m5.1 41.5c-.8.3-1.7.5-2.5.4a6.4 6.4 0 0 1-4.8-1.8 6 6 0 0 1-1.6-2.2 6 6 0 0 1-.6-2.7v-10.3h-1.8v-3.6h1.8v-9.2h4v9.2h4.3v3.6h-4.3v10.3c0 .4 0 .7.2 1.1.1.4.3.7.6 1l1 .7 1.2.3 1.2-.3 1-.7 2.6 2.8c-.7.7-1.4 1.1-2.3 1.4M128 30.5a30.5 30.5 0 1 0 0 61 30.5 30.5 0 0 0 0-61m2 41.4h-4V50h4v21.9zm0-25.5h-4v-3.6h4v3.6zM67.9 57.9c-.4-1-.9-1.8-1.6-2.6A7.2 7.2 0 0 0 61 53a7.7 7.7 0 0 0-7.1 4.8c-.4.9-.6 2-.5 3 0 1 .2 2 .5 3 .4.9.9 1.8 1.6 2.5a7.7 7.7 0 0 0 8.4 1.7 8 8 0 0 0 2.4-1.7c.7-.7 1.3-1.6 1.6-2.6l.2-.6c.3-.8.4-1.6.4-2.5 0-.8-.2-1.7-.4-2.5-.1.2-.1 0-.2-.2m-7-27.4a30.5 30.5 0 1 0 0 61 30.5 30.5 0 0 0 0-61m11.2 41.4h-4v-2.4c-.8.8-1.8 1.4-2.8 1.9-.7.3-1.4.6-2.1.7-.7.2-1.5.3-2.2.3-1.5 0-3-.3-4.4-.8a12 12 0 0 1-7.1-8.4c-.2-.8-.2-1.5-.2-2.3l.2-2.3.7-2.2a12 12 0 0 1 6.4-6.2 11 11 0 0 1 8.7.2c1 .5 2 1.1 2.8 1.9v-9.7h4v29.3zM202 57.9c-.4-1-.9-1.8-1.6-2.6a7.2 7.2 0 0 0-5.3-2.3 7.7 7.7 0 0 0-7.1 4.8c-.4.9-.6 2-.5 3 0 1 .2 2 .5 3 .4.9.9 1.8 1.6 2.5A7.7 7.7 0 0 0 198 68a8 8 0 0 0 2.4-1.7c.7-.7 1.3-1.6 1.6-2.6l.2-.6c.3-.8.4-1.6.4-2.5 0-.8-.2-1.7-.4-2.5-.1.2-.1 0-.2-.2m-7-27.4a30.5 30.5 0 1 0 0 61 30.5 30.5 0 0 0 0-61m11.2 41.4h-4v-2.4c-.8.8-1.8 1.4-2.8 1.9-.7.3-1.4.6-2.1.7-.7.2-1.5.3-2.2.3-1.5 0-3-.3-4.4-.8a12 12 0 0 1-7.1-8.4c-.2-.8-.2-1.5-.2-2.3l.2-2.3.7-2.2a12 12 0 0 1 6.4-6.2 11 11 0 0 1 8.7.2c1 .5 2 1.1 2.8 1.9V50h4v21.9zM195 164.6a30.5 30.5 0 1 0 0 61 30.5 30.5 0 0 0 0-61m10.1 36.1l-.2.5-.1.2-.1.2-.1.2-.1.2-.1.2-.1.2-1.3 1.4-1.4 1.1c-1 .6-2.1 1-3.2 1.3l-1.6.3-1.6.1c-1 0-2-.1-3-.4-1-.2-2-.6-2.8-1.1-.9-.5-1.7-1.1-2.5-1.8a8.8 8.8 0 0 1-1.9-2.4l3.3-2a5 5 0 0 0 1.3 1.6l1.7 1.3c.6.4 1.3.6 1.9.8l2.1.3 1.2-.1 1.2-.2c.8-.2 1.5-.5 2.1-.9.6-.4 1.1-.9 1.5-1.4l.1-.1.1-.1v-.1l.1-.1v-.1-.1l.1-.2.1-.8c0-.3 0-.7-.2-1l-.6-.9c-.2-.3-.5-.5-.9-.6l-1.1-.3h-8.3c-.7 0-1.4-.1-2-.3-.7-.2-1.3-.6-1.8-1.1a7 7 0 0 1-1.3-1.7c-.3-.7-.5-1.4-.5-2.1 0-.7.2-1.4.4-2 .3-.6.6-1.2 1-1.6.4-.5.8-.9 1.3-1.2l1.4-.9 1.5-.6 1.5-.4 3-.3c1.5 0 3.1.3 4.5.8 1.4.6 2.8 1.4 3.9 2.5l-2.7 2.7a10 10 0 0 0-2.6-1.8c-1-.4-2-.6-3.1-.7-.8 0-1.5.1-2.2.3-.7.2-1.4.4-2 .8l-.8.6-.6.6-.3.6-.1.6.1.6.3.5.5.4.7.2h8.3c.8 0 1.7.1 2.5.4.8.3 1.5.7 2.1 1.3a8 8 0 0 1 1.5 2.1c.4.8.6 1.7.6 2.5-.4.7-.5 1.4-.7 2M66.5 122.5a7.7 7.7 0 0 0-8.4-1.7 8 8 0 0 0-2.4 1.7c-.7.7-1.3 1.6-1.6 2.6l-.2.6c-.3.8-.4 1.6-.4 2.5 0 .8.2 1.7.4 2.5l.2.6c.4 1 .9 1.8 1.6 2.6a7.2 7.2 0 0 0 5.3 2.3 7.7 7.7 0 0 0 7.1-4.8 6 6 0 0 0 .5-3c0-1-.2-2-.5-3a6.7 6.7 0 0 0-1.6-2.9m-5.5-25a30.5 30.5 0 1 0 0 61 30.5 30.5 0 0 0 0-61m11.4 32.8l-.7 2.2a12 12 0 0 1-6.4 6.2 11 11 0 0 1-6.6.5l-2.1-.7c-1-.5-2-1.1-2.8-1.9v2.4h-4v-29.3h4v9.7c.8-.8 1.8-1.4 2.8-1.9.7-.3 1.4-.6 2.1-.7.7-.2 1.5-.3 2.2-.3 1.5 0 3 .3 4.4.8a12 12 0 0 1 7.1 8.4c.2.7.2 1.5.2 2.3 0 .8 0 1.5-.2 2.3M133.7 122.5a8.1 8.1 0 0 0-8.8-1.7 7.8 7.8 0 0 0-4.3 4.2l-.4 1.2h15.5l-.4-1.2c-.3-.9-.9-1.8-1.6-2.5m-5.7-25a30.5 30.5 0 1 0 0 61 30.5 30.5 0 0 0 0-61m11.8 32.3h-19.6l.4 1.2a7.8 7.8 0 0 0 4.3 4.2 8.1 8.1 0 0 0 6.2 0c1-.4 1.9-1 2.6-1.7.5-.5.9-1 1.2-1.6l3.3 2c-.5.9-1.2 1.6-1.9 2.3-1.1 1.1-2.4 1.9-3.9 2.4s-3 .8-4.5.8-3-.3-4.5-.8c-1.4-.5-2.7-1.4-3.9-2.4-1.1-1-2-2.3-2.7-3.7-.3-.7-.6-1.5-.7-2.2l-.1-.5-.2-1.8.2-1.8.1-.5.7-2.2c.6-1.4 1.6-2.7 2.7-3.8 1.1-1 2.4-1.9 3.9-2.4a13.3 13.3 0 0 1 9 0c1.5.5 2.7 1.4 3.9 2.4a13 13 0 0 1 2.7 3.8c.3.7.6 1.5.7 2.2l.1.5.2 1.8-.2 1.8"/><path clip-path="url(#a)" fill="#3F87C4" d="M225.5 128a30.5 30.5 0 1 1-61 0 30.5 30.5 0 0 1 61 0M195 106.7a21.3 21.3 0 1 0 0 42.6 21.3 21.3 0 0 0 0-42.6"/><path clip-path="url(#a)" fill="#61656A" d="M133.7 189.5a8.1 8.1 0 0 0-8.8-1.7 7.8 7.8 0 0 0-4.3 4.2l-.4 1.2h15.5l-.4-1.2c-.3-.9-.9-1.7-1.6-2.5m-5.7-24.9a30.5 30.5 0 1 0 0 61 30.5 30.5 0 0 0 0-61m11.8 32.3h-19.6l.4 1.2a7.8 7.8 0 0 0 4.3 4.2 8.1 8.1 0 0 0 6.2 0c1-.4 1.9-1 2.6-1.7.5-.5.9-1 1.2-1.6l3.3 2c-.5.9-1.2 1.6-1.9 2.3a9.8 9.8 0 0 1-3.9 2.4c-1.4.5-3 .8-4.5.8s-3-.3-4.5-.8c-1.4-.5-2.7-1.4-3.9-2.4-1.1-1-2-2.3-2.7-3.7-.3-.7-.6-1.5-.7-2.2l-.1-.5-.2-1.8.2-1.8.1-.5.7-2.2c.6-1.4 1.6-2.7 2.7-3.8 1.1-1 2.4-1.9 3.9-2.4a13.3 13.3 0 0 1 9 0c1.5.5 2.7 1.4 3.9 2.4a13 13 0 0 1 2.7 3.8c.3.7.6 1.5.7 2.2l.1.5.2 1.8-.2 1.8"/></svg>