<svg xmlns="http://www.w3.org/2000/svg" width="469.682" height="82.885" viewBox="0 0 352.26 62.17"><defs><style>.a{isolation:isolate}.b{opacity:.2}.b,.c{mix-blend-mode:multiply}.d{fill:#04070b}.e{fill:#fff}.f{fill:none;stroke:#1d1d1b;stroke-miterlimit:10;stroke-width:.25px}</style></defs><g class="a"><g class="b"><g class="c"><path class="d" d="M257.61 58.52a14.11 14.11 0 0 1-9.75 3.65 13.86 13.86 0 0 1-5.23-.9 14.12 14.12 0 0 1-4.58-2.82 13.68 13.68 0 0 1-4.42-9.83V27.56h-3.57v-7.37h3.57V1.54h8.19v18.65h8.71v7.37h-8.71v21.06a5.36 5.36 0 0 0 .36 2.24 5.8 5.8 0 0 0 1.26 2 6.28 6.28 0 0 0 2 1.4 6.64 6.64 0 0 0 2.43.56 6.44 6.44 0 0 0 2.42-.56 6.27 6.27 0 0 0 2-1.37z"/><path class="d" d="M56.25 16.43H64.44V61.089999999999996H56.25z"/><path class="d" d="M56.25 1.69H64.44V9.06H56.25z"/><path class="d" d="M39.88 43.78c-.12.39-.26.77-.41 1.15a16.5 16.5 0 0 1-3.33 5.22 14.92 14.92 0 0 1-4.95 3.49 13.81 13.81 0 0 1-5.83 1.16 16.22 16.22 0 0 1-14.54-22.06 15.88 15.88 0 0 1 14.54-10 14.12 14.12 0 0 1 5.83 1.16 15.22 15.22 0 0 1 4.95 3.49 16.54 16.54 0 0 1 3.33 5.23c.15.37.29.75.41 1.14a17.7 17.7 0 0 1 .82 5 17.7 17.7 0 0 1-.82 5m0-42.24v19.7a22.18 22.18 0 0 0-5.74-3.89 21.34 21.34 0 0 0-4.27-1.47 22.13 22.13 0 0 0-4.51-.53 23.61 23.61 0 0 0-23.31 18.8 24 24 0 0 0-.51 4.63 24 24 0 0 0 .51 4.63 23.64 23.64 0 0 0 14.31 17.1 23.42 23.42 0 0 0 9 1.68 21.45 21.45 0 0 0 4.51-.53 20.73 20.73 0 0 0 4.27-1.47 21.93 21.93 0 0 0 5.74-3.89v4.81h8.19V1.54zm68.85 42.26c-.12.39-.26.77-.41 1.15a16.47 16.47 0 0 1-3.32 5.22 15 15 0 0 1-5 3.49 13.77 13.77 0 0 1-5.82 1.16A15.9 15.9 0 0 1 83 50a15.67 15.67 0 0 1-3.34-5.18 15.48 15.48 0 0 1-1.09-6 15.48 15.48 0 0 1 1.09-6A15.78 15.78 0 0 1 83 27.56a15.9 15.9 0 0 1 11.2-4.84 14.08 14.08 0 0 1 5.8 1.16 15.11 15.11 0 0 1 5 3.49 16.51 16.51 0 0 1 3.32 5.23c.15.37.29.75.41 1.14a17.35 17.35 0 0 1 .82 5 17.35 17.35 0 0 1-.82 5m0-27.35v4.81a22.13 22.13 0 0 0-5.73-3.85 21.43 21.43 0 0 0-4.28-1.47 22 22 0 0 0-4.5-.53 23.55 23.55 0 0 0-16.7 6.71 23.61 23.61 0 0 0-6.62 12.07 24 24 0 0 0-.5 4.63 24 24 0 0 0 .5 4.63 23.68 23.68 0 0 0 14.32 17.1 23.38 23.38 0 0 0 9 1.68 21.24 21.24 0 0 0 8.78-2 21.88 21.88 0 0 0 5.73-3.89v4.81h8.19V16.43zm243.53 29.78a13.09 13.09 0 0 1-.73 4.13 10 10 0 0 1-.37 1c-.06.16-.14.32-.21.47l-.22.46-.25.44c-.08.14-.16.29-.25.43l-.27.42c-.09.14-.18.28-.27.4a17 17 0 0 1-2.56 2.84 18.67 18.67 0 0 1-2.95 2.13 23.38 23.38 0 0 1-6.44 2.59 24.29 24.29 0 0 1-3.34.57 28.83 28.83 0 0 1-3.34.16 25 25 0 0 1-6.14-.71A24.43 24.43 0 0 1 314 55.54a23.39 23.39 0 0 1-4-4.9l6.8-4a16 16 0 0 0 2.65 3.36 16.48 16.48 0 0 0 3.38 2.59 17 17 0 0 0 8.22 2.26 21.71 21.71 0 0 0 2.43-.2 18.6 18.6 0 0 0 2.38-.5 15.55 15.55 0 0 0 4.25-1.87 10.09 10.09 0 0 0 3-2.87l.12-.2.12-.2a894030087899.15 894030087899.15 0 0 1 .2-.4l.09-.2a1.19 1.19 0 0 0 .08-.2 2.7 2.7 0 0 0 .14-.4 5.43 5.43 0 0 0 .21-1.59 5 5 0 0 0-.31-2 5.31 5.31 0 0 0-1.13-1.79 5.67 5.67 0 0 0-1.79-1.27 6 6 0 0 0-2.18-.53h-16.8a11 11 0 0 1-4.17-.7 11 11 0 0 1-7.23-10.08 11.69 11.69 0 0 1 .82-4.09 12.92 12.92 0 0 1 2-3.37 14.92 14.92 0 0 1 2.6-2.5 18.69 18.69 0 0 1 2.87-1.82 22.34 22.34 0 0 1 3-1.28 26.4 26.4 0 0 1 3.07-.84 28.34 28.34 0 0 1 6.21-.58 24.66 24.66 0 0 1 9.15 1.63 24.16 24.16 0 0 1 7.91 5l-5.42 5.58a16.42 16.42 0 0 0-5.31-3.58 16.9 16.9 0 0 0-6.36-1.28 20.69 20.69 0 0 0-4.54.6 16 16 0 0 0-4.06 1.58 11.53 11.53 0 0 0-1.62 1.1 7.52 7.52 0 0 0-1.24 1.3 4.67 4.67 0 0 0-.71 1.3 3.35 3.35 0 0 0-.18 1.19 2.85 2.85 0 0 0 .14 1.15 3.29 3.29 0 0 0 .64 1.09 3.61 3.61 0 0 0 2.43 1.17h16.8a13.43 13.43 0 0 1 9.34 3.6 13.1 13.1 0 0 1 4.25 9.37m-189.9-1.39a15.88 15.88 0 0 1-14.54 10 13.77 13.77 0 0 1-5.81-1.14 15 15 0 0 1-5-3.49 16.47 16.47 0 0 1-3.32-5.22c-.15-.38-.29-.76-.41-1.15a17.35 17.35 0 0 1-.82-5 17.35 17.35 0 0 1 .82-5c.12-.39.26-.77.41-1.14a16.51 16.51 0 0 1 3.32-5.27 15.26 15.26 0 0 1 5-3.49 14.08 14.08 0 0 1 5.82-1.16 15.86 15.86 0 0 1 14.54 10 15.48 15.48 0 0 1 1.09 6 15.48 15.48 0 0 1-1.09 6m8.78-10.65a23.58 23.58 0 0 0-23.32-18.78 22 22 0 0 0-4.5.53 21.21 21.21 0 0 0-4.32 1.53 22.13 22.13 0 0 0-5.73 3.89V1.54h-8.19v59.55h8.19v-4.81a21.88 21.88 0 0 0 5.73 3.89 20.61 20.61 0 0 0 4.28 1.47 21.28 21.28 0 0 0 4.5.53 23.38 23.38 0 0 0 9-1.68 23.65 23.65 0 0 0 14.32-17.1 24.85 24.85 0 0 0 .5-4.63 24.85 24.85 0 0 0-.5-4.63m15.08-1.43a15.84 15.84 0 0 1 3.49-5.18A16.67 16.67 0 0 1 195 24a15.77 15.77 0 0 1 12.54 0 16.67 16.67 0 0 1 5.28 3.5 15.84 15.84 0 0 1 3.49 5.18 15.32 15.32 0 0 1 .76 2.38h-31.6a15.32 15.32 0 0 1 .76-2.38m39.09 9.75a25.43 25.43 0 0 0 .33-3.69 25.17 25.17 0 0 0-.33-3.68c-.06-.35-.13-.69-.2-1a23.5 23.5 0 0 0-6.92-12.13 24.1 24.1 0 0 0-7.91-4.93 26 26 0 0 0-18.14 0 24.1 24.1 0 0 0-7.86 4.93A23.5 23.5 0 0 0 177.37 34c-.07.35-.14.69-.2 1a25.17 25.17 0 0 0-.33 3.68 25.43 25.43 0 0 0 .33 3.69c.06.34.13.69.2 1a23.41 23.41 0 0 0 6.92 12.13 24.1 24.1 0 0 0 7.86 4.93 26 26 0 0 0 18.14 0 24.1 24.1 0 0 0 7.86-4.93 23.57 23.57 0 0 0 3.85-4.61l-6.75-4.12a16 16 0 0 1-2.48 3.23 16.5 16.5 0 0 1-5.28 3.5 15.77 15.77 0 0 1-12.54 0 16.5 16.5 0 0 1-5.28-3.5 15.84 15.84 0 0 1-3.49-5.18 15.56 15.56 0 0 1-.76-2.37zm40.88-9.73a15.84 15.84 0 0 1 3.49-5.18A16.78 16.78 0 0 1 275 24a15.77 15.77 0 0 1 12.54 0 16.67 16.67 0 0 1 5.28 3.5 15.84 15.84 0 0 1 3.49 5.18 14.32 14.32 0 0 1 .76 2.38h-31.6a15.32 15.32 0 0 1 .76-2.38m39.09 9.75a20.74 20.74 0 0 0 0-7.37c-.06-.35-.13-.69-.2-1a23.5 23.5 0 0 0-6.92-12.13 24 24 0 0 0-7.89-4.93 26 26 0 0 0-18.14 0 24.1 24.1 0 0 0-7.86 4.93 23.7 23.7 0 0 0-5.44 7.63A22.78 22.78 0 0 0 257.4 34c-.08.35-.14.69-.2 1a23.87 23.87 0 0 0-.34 3.68 24.11 24.11 0 0 0 .34 3.69c.06.34.12.69.2 1a23.09 23.09 0 0 0 1.47 4.63 23.77 23.77 0 0 0 5.44 7.62 24.1 24.1 0 0 0 7.86 4.93 26 26 0 0 0 18.14 0 24 24 0 0 0 7.86-4.93 23.57 23.57 0 0 0 3.89-4.72l-6.75-4.12a16 16 0 0 1-2.52 3.22 16.5 16.5 0 0 1-5.28 3.5 15.77 15.77 0 0 1-12.54 0 16.61 16.61 0 0 1-5.28-3.5 15.84 15.84 0 0 1-3.49-5.18 15.56 15.56 0 0 1-.76-2.37z"/></g></g><path class="e" d="M256.19 57.1a13.79 13.79 0 0 1-4.55 2.77 15.81 15.81 0 0 1-10.43 0 14 14 0 0 1-7.78-7.25 13.6 13.6 0 0 1-1.22-5.4V26.14h-3.56v-7.37h3.56V.12h8.19v18.65h8.72v7.37h-8.72v21.07a5.5 5.5 0 0 0 .36 2.23 5.8 5.8 0 0 0 1.26 2 6.1 6.1 0 0 0 8.83 0z"/><path class="f" d="M256.19 57.1a13.79 13.79 0 0 1-4.55 2.77 15.81 15.81 0 0 1-10.43 0 14 14 0 0 1-7.78-7.25 13.6 13.6 0 0 1-1.22-5.4V26.14h-3.56v-7.37h3.56V.12h8.19v18.65h8.72v7.37h-8.72v21.07a5.5 5.5 0 0 0 .36 2.23 5.8 5.8 0 0 0 1.26 2 6.1 6.1 0 0 0 8.83 0z"/><path class="e" d="M54.84 15.01H63.03V59.669999999999995H54.84z"/><path class="f" d="M54.84 15.01H63.03V59.669999999999995H54.84z"/><path class="e" d="M54.84 0.27H63.03V7.640000000000001H54.84z"/><path class="f" d="M54.84 0.27H63.03V7.640000000000001H54.84z"/><path class="e" d="M38.46 42.37c-.12.38-.26.76-.41 1.14a16.47 16.47 0 0 1-3.32 5.22 15.14 15.14 0 0 1-5 3.5A14.08 14.08 0 0 1 24 53.39a16.05 16.05 0 0 1-6.1-1.32 15.87 15.87 0 0 1-5.1-3.53 15.77 15.77 0 0 1-4.44-11.2 15.72 15.72 0 0 1 4.44-11.19 15.56 15.56 0 0 1 5.1-3.53A16.05 16.05 0 0 1 24 21.3a14.08 14.08 0 0 1 5.82 1.16 15.26 15.26 0 0 1 5 3.49 16.63 16.63 0 0 1 3.32 5.23c.15.37.29.76.41 1.14a17.7 17.7 0 0 1 .82 5 17.77 17.77 0 0 1-.82 5m0-42.24v19.74a22.3 22.3 0 0 0-5.73-3.89 21.67 21.67 0 0 0-8.78-2A23.63 23.63 0 0 0 .63 32.71a21.73 21.73 0 0 0 0 9.29 23.65 23.65 0 0 0 6.62 12A23.44 23.44 0 0 0 24 60.75a21.24 21.24 0 0 0 8.78-2 21.8 21.8 0 0 0 5.73-3.89v4.82h8.19V.13z"/><path class="f" d="M38.46 42.37c-.12.38-.26.76-.41 1.14a16.47 16.47 0 0 1-3.32 5.22 15.14 15.14 0 0 1-5 3.5A14.08 14.08 0 0 1 24 53.39a16.05 16.05 0 0 1-6.1-1.32 15.87 15.87 0 0 1-5.1-3.53 15.77 15.77 0 0 1-4.44-11.2 15.72 15.72 0 0 1 4.44-11.19 15.56 15.56 0 0 1 5.1-3.53A16.05 16.05 0 0 1 24 21.3a14.08 14.08 0 0 1 5.82 1.16 15.26 15.26 0 0 1 5 3.49 16.63 16.63 0 0 1 3.32 5.23c.15.37.29.76.41 1.14a17.7 17.7 0 0 1 .82 5 17.77 17.77 0 0 1-.91 5.05zm0-42.24v19.69a22.3 22.3 0 0 0-5.73-3.89 21.67 21.67 0 0 0-8.78-2A23.63 23.63 0 0 0 .63 32.71a21.73 21.73 0 0 0 0 9.29 23.65 23.65 0 0 0 6.62 12A23.44 23.44 0 0 0 24 60.75a21.24 21.24 0 0 0 8.78-2 21.8 21.8 0 0 0 5.73-3.89v4.82h8.19V.13z"/><path class="e" d="M107.31 42.37c-.12.38-.25.76-.4 1.14a16.5 16.5 0 0 1-3.33 5.22 15.2 15.2 0 0 1-5 3.5 14 14 0 0 1-5.83 1.15 15.9 15.9 0 0 1-6.1-1.31 16.09 16.09 0 0 1-5.1-3.53 15.7 15.7 0 0 1-4.43-11.2 15.8 15.8 0 0 1 9.58-14.72 15.91 15.91 0 0 1 6.1-1.32 14.16 14.16 0 0 1 5.83 1.16 15.32 15.32 0 0 1 5 3.49 16.65 16.65 0 0 1 3.33 5.23c.15.37.28.76.4 1.14a17.35 17.35 0 0 1 .82 5 17.42 17.42 0 0 1-.82 5m0-27.36v4.81a22.13 22.13 0 0 0-5.73-3.89 21.24 21.24 0 0 0-8.78-2 23.59 23.59 0 0 0-21.96 14.39 22.24 22.24 0 0 0-1.4 4.44 24 24 0 0 0-.49 4.63 24.15 24.15 0 0 0 .49 4.66 22.45 22.45 0 0 0 1.4 4.44A23.63 23.63 0 0 0 83.8 59.07a23.38 23.38 0 0 0 9 1.68 21.24 21.24 0 0 0 8.78-2 21.64 21.64 0 0 0 5.73-3.89v4.81h8.19V15z"/><path class="f" d="M107.31 42.37c-.12.38-.25.76-.4 1.14a16.5 16.5 0 0 1-3.33 5.22 15.2 15.2 0 0 1-5 3.5 14 14 0 0 1-5.83 1.15 15.9 15.9 0 0 1-6.1-1.31 16.09 16.09 0 0 1-5.1-3.53 15.7 15.7 0 0 1-4.43-11.2 15.8 15.8 0 0 1 9.58-14.72 15.91 15.91 0 0 1 6.1-1.32 14.16 14.16 0 0 1 5.83 1.16 15.32 15.32 0 0 1 5 3.49 16.65 16.65 0 0 1 3.33 5.23c.15.37.28.76.4 1.14a17.35 17.35 0 0 1 .82 5 17.42 17.42 0 0 1-.87 5.05zm0-27.36v4.81a22.13 22.13 0 0 0-5.73-3.89 21.24 21.24 0 0 0-8.78-2 23.59 23.59 0 0 0-21.91 14.34 22.24 22.24 0 0 0-1.4 4.44 24 24 0 0 0-.49 4.63 24.15 24.15 0 0 0 .49 4.66 22.45 22.45 0 0 0 1.4 4.44A23.63 23.63 0 0 0 83.8 59.07a23.38 23.38 0 0 0 9 1.68 21.24 21.24 0 0 0 8.78-2 21.64 21.64 0 0 0 5.73-3.89v4.81h8.19V15z"/><path class="e" d="M350.84 44.76a13.26 13.26 0 0 1-.72 4.12c-.11.34-.25.65-.37 1a6.5 6.5 0 0 1-.22.46l-.22.46-.24.44-.26.43-.26.42c-.09.14-.18.28-.28.41a16.57 16.57 0 0 1-2.56 2.83 19.83 19.83 0 0 1-2.94 2.14 23.6 23.6 0 0 1-6.45 2.53 25.36 25.36 0 0 1-3.34.58 26.75 26.75 0 0 1-3.34.15 23.9 23.9 0 0 1-6.13-.71 24.22 24.22 0 0 1-5.8-2.25 23.94 23.94 0 0 1-5.06-3.67 23.64 23.64 0 0 1-4-4.89l6.8-4a16.25 16.25 0 0 0 2.55 3.32 16.42 16.42 0 0 0 3.37 2.59 17 17 0 0 0 4 1.65 17.47 17.47 0 0 0 4.26.62 22.1 22.1 0 0 0 2.44-.21 18.79 18.79 0 0 0 2.37-.49 16.09 16.09 0 0 0 4.26-1.88 10 10 0 0 0 3-2.87 2 2 0 0 0 .12-.19l.12-.2c0-.07.07-.14.1-.2l.11-.2c0-.07.05-.14.08-.2s.07-.14.09-.2.1-.27.13-.4a4.87 4.87 0 0 0 .21-1.59 4.81 4.81 0 0 0-.31-2 5.41 5.41 0 0 0-1.14-1.76 5.88 5.88 0 0 0-1.79-1.27 5.76 5.76 0 0 0-2.18-.52h-16.8a11.22 11.22 0 0 1-7.81-2.94 11.06 11.06 0 0 1-2.57-3.5 10.83 10.83 0 0 1-1-4.35 11.51 11.51 0 0 1 .82-4.09 12.73 12.73 0 0 1 2-3.36 15.35 15.35 0 0 1 2.6-2.51 19.18 19.18 0 0 1 2.87-1.82 21.06 21.06 0 0 1 3-1.27 26.07 26.07 0 0 1 3.08-.85 28.93 28.93 0 0 1 6.2-.58 24.75 24.75 0 0 1 9.15 1.66 24.4 24.4 0 0 1 7.91 5l-5.43 5.57a16.54 16.54 0 0 0-5.3-3.56 17.31 17.31 0 0 0-6.33-1.32 21.39 21.39 0 0 0-4.54.6 16.12 16.12 0 0 0-4.09 1.6 10.78 10.78 0 0 0-1.66 1.14 7.85 7.85 0 0 0-1.24 1.29 4.94 4.94 0 0 0-.71 1.3 3.63 3.63 0 0 0-.18 1.19 2.83 2.83 0 0 0 .14 1.15 3.16 3.16 0 0 0 .65 1.09 3.44 3.44 0 0 0 1.07.81 3.67 3.67 0 0 0 1.35.37h16.8a13.17 13.17 0 0 1 5 .86 13.37 13.37 0 0 1 7.42 6.89 13 13 0 0 1 1.18 5.18"/><path class="f" d="M350.84 44.76a13.26 13.26 0 0 1-.72 4.12c-.11.34-.25.65-.37 1a6.5 6.5 0 0 1-.22.46l-.22.46-.24.44-.26.43-.26.42c-.09.14-.18.28-.28.41a16.57 16.57 0 0 1-2.56 2.83 19.83 19.83 0 0 1-2.94 2.14 23.6 23.6 0 0 1-6.45 2.53 25.36 25.36 0 0 1-3.34.58 26.75 26.75 0 0 1-3.34.15 23.9 23.9 0 0 1-6.13-.71 24.22 24.22 0 0 1-5.8-2.25 23.94 23.94 0 0 1-5.06-3.67 23.64 23.64 0 0 1-4-4.89l6.8-4a16.25 16.25 0 0 0 2.55 3.32 16.42 16.42 0 0 0 3.37 2.59 17 17 0 0 0 4 1.65 17.47 17.47 0 0 0 4.26.62 22.1 22.1 0 0 0 2.44-.21 18.79 18.79 0 0 0 2.37-.49 16.09 16.09 0 0 0 4.26-1.88 10 10 0 0 0 3-2.87 2 2 0 0 0 .12-.19l.12-.2c0-.07.07-.14.1-.2l.11-.2c0-.07.05-.14.08-.2s.07-.14.09-.2.1-.27.13-.4a4.87 4.87 0 0 0 .21-1.59 4.81 4.81 0 0 0-.31-2 5.41 5.41 0 0 0-1.14-1.76 5.88 5.88 0 0 0-1.79-1.27 5.76 5.76 0 0 0-2.18-.52h-16.8a11.22 11.22 0 0 1-7.81-2.94 11.06 11.06 0 0 1-2.57-3.5 10.83 10.83 0 0 1-1-4.35 11.51 11.51 0 0 1 .82-4.09 12.73 12.73 0 0 1 2-3.36 15.35 15.35 0 0 1 2.6-2.51 19.18 19.18 0 0 1 2.87-1.82 21.06 21.06 0 0 1 3-1.27 26.07 26.07 0 0 1 3.08-.85 28.93 28.93 0 0 1 6.2-.58 24.75 24.75 0 0 1 9.15 1.66 24.4 24.4 0 0 1 7.91 5l-5.43 5.57a16.54 16.54 0 0 0-5.3-3.56 17.31 17.31 0 0 0-6.33-1.32 21.39 21.39 0 0 0-4.54.6 16.12 16.12 0 0 0-4.09 1.6 10.78 10.78 0 0 0-1.66 1.14 7.85 7.85 0 0 0-1.24 1.29 4.94 4.94 0 0 0-.71 1.3 3.63 3.63 0 0 0-.18 1.19 2.83 2.83 0 0 0 .14 1.15 3.16 3.16 0 0 0 .65 1.09 3.44 3.44 0 0 0 1.07.81 3.67 3.67 0 0 0 1.35.37h16.8a13.17 13.17 0 0 1 5 .86 13.37 13.37 0 0 1 7.42 6.89 13 13 0 0 1 1.2 5.18z"/><path class="e" d="M160.93 43.36a15.57 15.57 0 0 1-3.34 5.18 15.9 15.9 0 0 1-11.2 4.84 13.91 13.91 0 0 1-5.82-1.15 15.14 15.14 0 0 1-5-3.5 16.47 16.47 0 0 1-3.32-5.22c-.15-.38-.29-.76-.41-1.15a17.64 17.64 0 0 1-.82-5 17.7 17.7 0 0 1 .82-5c.12-.38.26-.77.41-1.14a16.63 16.63 0 0 1 3.36-5.22 15.26 15.26 0 0 1 5-3.49 14.08 14.08 0 0 1 5.82-1.16 15.87 15.87 0 0 1 6.1 1.32 15.87 15.87 0 0 1 8.44 8.7 15.74 15.74 0 0 1 1.1 6 15.68 15.68 0 0 1-1.1 6m8.78-10.65a24 24 0 0 0-1.4-4.45 23.58 23.58 0 0 0-21.92-14.33 21.24 21.24 0 0 0-8.78 2 22.3 22.3 0 0 0-5.73 3.89V.12h-8.19v59.55h8.19v-4.81a21.8 21.8 0 0 0 5.73 3.89 21.24 21.24 0 0 0 8.78 2A23.44 23.44 0 0 0 163.09 54a23.65 23.65 0 0 0 6.62-12 21.73 21.73 0 0 0 0-9.27"/><path class="f" d="M160.93 43.36a15.57 15.57 0 0 1-3.34 5.18 15.9 15.9 0 0 1-11.2 4.84 13.91 13.91 0 0 1-5.82-1.15 15.14 15.14 0 0 1-5-3.5 16.47 16.47 0 0 1-3.32-5.22c-.15-.38-.29-.76-.41-1.15a17.64 17.64 0 0 1-.82-5 17.7 17.7 0 0 1 .82-5c.12-.38.26-.77.41-1.14a16.63 16.63 0 0 1 3.36-5.22 15.26 15.26 0 0 1 5-3.49 14.08 14.08 0 0 1 5.82-1.16 15.87 15.87 0 0 1 6.1 1.32 15.87 15.87 0 0 1 8.44 8.7 15.74 15.74 0 0 1 1.1 6 15.68 15.68 0 0 1-1.14 5.99zm8.78-10.65a24 24 0 0 0-1.4-4.45 23.58 23.58 0 0 0-21.92-14.33 21.24 21.24 0 0 0-8.78 2 22.3 22.3 0 0 0-5.73 3.89V.12h-8.19v59.55h8.19v-4.81a21.8 21.8 0 0 0 5.73 3.89 21.24 21.24 0 0 0 8.78 2 23.44 23.44 0 0 0 16.7-6.75 23.65 23.65 0 0 0 6.62-12 21.73 21.73 0 0 0 0-9.27z"/><path class="e" d="M184.76 31.29a15.63 15.63 0 0 1 3.49-5.18 16.64 16.64 0 0 1 5.28-3.51 15.79 15.79 0 0 1 12.55 0 16.49 16.49 0 0 1 5.27 3.51 15.63 15.63 0 0 1 3.49 5.18 14.22 14.22 0 0 1 .76 2.37H184a15.21 15.21 0 0 1 .76-2.37M223.85 41a20.74 20.74 0 0 0 0-7.37c-.06-.35-.13-.69-.2-1a23.53 23.53 0 0 0-6.91-12.14 24.38 24.38 0 0 0-16.94-6.56 24.33 24.33 0 0 0-16.93 6.56 23.81 23.81 0 0 0-5.44 7.63 23.55 23.55 0 0 0-1.43 4.51c-.08.34-.14.68-.2 1a24 24 0 0 0-.34 3.68 24 24 0 0 0 .34 3.69c.06.34.12.69.2 1a23.25 23.25 0 0 0 6.91 12.13 24.64 24.64 0 0 0 37.75-4.71l-6.75-4.13a15.7 15.7 0 0 1-2.52 3.23 16.49 16.49 0 0 1-5.27 3.51 15.79 15.79 0 0 1-12.55 0 16.64 16.64 0 0 1-5.28-3.51 15.84 15.84 0 0 1-3.49-5.18A15.21 15.21 0 0 1 184 41z"/><path class="f" d="M184.76 31.29a15.63 15.63 0 0 1 3.49-5.18 16.64 16.64 0 0 1 5.28-3.51 15.79 15.79 0 0 1 12.55 0 16.49 16.49 0 0 1 5.27 3.51 15.63 15.63 0 0 1 3.49 5.18 14.22 14.22 0 0 1 .76 2.37H184a15.21 15.21 0 0 1 .76-2.37zM223.85 41a20.74 20.74 0 0 0 0-7.37c-.06-.35-.13-.69-.2-1a23.53 23.53 0 0 0-6.91-12.14 24.38 24.38 0 0 0-16.94-6.56 24.33 24.33 0 0 0-16.93 6.56 23.81 23.81 0 0 0-5.44 7.63 23.55 23.55 0 0 0-1.43 4.51c-.08.34-.14.68-.2 1a24 24 0 0 0-.34 3.68 24 24 0 0 0 .34 3.69c.06.34.12.69.2 1a23.25 23.25 0 0 0 6.91 12.13 24.64 24.64 0 0 0 37.75-4.71l-6.75-4.13a15.7 15.7 0 0 1-2.52 3.23 16.49 16.49 0 0 1-5.27 3.51 15.79 15.79 0 0 1-12.55 0 16.64 16.64 0 0 1-5.28-3.51 15.84 15.84 0 0 1-3.49-5.18A15.21 15.21 0 0 1 184 41z"/><path class="e" d="M264.78 31.29a15.51 15.51 0 0 1 3.5-5.18 16.49 16.49 0 0 1 5.27-3.51 15.79 15.79 0 0 1 12.55 0 16.49 16.49 0 0 1 5.27 3.51 15.51 15.51 0 0 1 3.5 5.18 15.17 15.17 0 0 1 .75 2.37H264a15.21 15.21 0 0 1 .76-2.37M303.87 41a20.74 20.74 0 0 0 0-7.37c-.06-.35-.13-.69-.2-1a22.9 22.9 0 0 0-1.48-4.51 23.63 23.63 0 0 0-5.43-7.63 24.33 24.33 0 0 0-16.93-6.56 24.8 24.8 0 0 0-9.08 1.63 24.54 24.54 0 0 0-7.86 4.93 23.63 23.63 0 0 0-5.43 7.63 22.9 22.9 0 0 0-1.46 4.51c-.07.34-.14.68-.2 1a20.74 20.74 0 0 0 0 7.37c.06.34.13.69.2 1a22.9 22.9 0 0 0 1.48 4.51 23.48 23.48 0 0 0 5.43 7.62 24.68 24.68 0 0 0 37.76-4.71l-6.76-4.13a15.7 15.7 0 0 1-2.52 3.23 16.49 16.49 0 0 1-5.27 3.51 15.79 15.79 0 0 1-12.55 0 16.49 16.49 0 0 1-5.27-3.51 15.71 15.71 0 0 1-3.5-5.18A15.21 15.21 0 0 1 264 41z"/><path class="f" d="M264.78 31.29a15.51 15.51 0 0 1 3.5-5.18 16.49 16.49 0 0 1 5.27-3.51 15.79 15.79 0 0 1 12.55 0 16.49 16.49 0 0 1 5.27 3.51 15.51 15.51 0 0 1 3.5 5.18 15.17 15.17 0 0 1 .75 2.37H264a15.21 15.21 0 0 1 .78-2.37zM303.87 41a20.74 20.74 0 0 0 0-7.37c-.06-.35-.13-.69-.2-1a22.9 22.9 0 0 0-1.48-4.51 23.63 23.63 0 0 0-5.43-7.63 24.33 24.33 0 0 0-16.93-6.56 24.8 24.8 0 0 0-9.08 1.63 24.54 24.54 0 0 0-7.86 4.93 23.63 23.63 0 0 0-5.43 7.63 22.9 22.9 0 0 0-1.46 4.51c-.07.34-.14.68-.2 1a20.74 20.74 0 0 0 0 7.37c.06.34.13.69.2 1a22.9 22.9 0 0 0 1.48 4.51 23.48 23.48 0 0 0 5.43 7.62 24.68 24.68 0 0 0 37.76-4.71l-6.76-4.13a15.7 15.7 0 0 1-2.52 3.23 16.49 16.49 0 0 1-5.27 3.51 15.79 15.79 0 0 1-12.55 0 16.49 16.49 0 0 1-5.27-3.51 15.71 15.71 0 0 1-3.5-5.18A15.21 15.21 0 0 1 264 41z"/></g></svg>