<svg xmlns="http://www.w3.org/2000/svg" width="768" height="768"><path d="M120.96 527.88C54.65 527.88.9 581.63.9 647.94S54.65 768 120.96 768s120.06-53.75 120.06-120.06-53.75-120.06-120.06-120.06m20.07 163.36c-3.15 1.18-6.69 1.97-9.84 1.57a25.16 25.16 0 0 1-18.89-7.09 23.728 23.728 0 0 1-6.3-8.66 23.69 23.69 0 0 1-2.36-10.63v-40.55h-7.09v-14.17h7.09v-36.22h15.75v36.22h16.93v14.17h-16.93v40.55c0 1.57 0 2.76.79 4.33.39 1.57 1.18 2.76 2.36 3.94l3.94 2.76 4.72 1.18 4.72-1.18 3.94-2.76 10.23 11.02c-2.76 2.76-5.51 4.33-9.05 5.51M384.7 0c-66.31 0-120.06 53.75-120.06 120.06s53.75 120.06 120.06 120.06 120.06-53.75 120.06-120.06S451 0 384.7 0m7.87 162.97h-15.75V76.76h15.75v86.21zm0-100.38h-15.75V48.42h15.75v14.17zm-244.45 45.27c-1.57-3.94-3.54-7.09-6.3-10.23a28.327 28.327 0 0 0-20.86-9.05 30.312 30.312 0 0 0-27.95 18.89c-1.57 3.54-2.36 7.87-1.97 11.81 0 3.94.79 7.87 1.97 11.81 1.57 3.54 3.54 7.09 6.3 9.84a30.301 30.301 0 0 0 33.07 6.69c3.54-1.63 6.74-3.9 9.45-6.69 2.76-2.76 5.12-6.3 6.3-10.23l.79-2.36c1.18-3.15 1.57-6.3 1.57-9.84 0-3.15-.79-6.69-1.57-9.84-.39.79-.39 0-.79-.79M120.56 0C54.25 0 .5 53.75.5 120.06s53.75 120.06 120.06 120.06 120.06-53.75 120.06-120.06S186.87 0 120.56 0m44.09 162.97H148.9v-9.45c-3.15 3.15-7.09 5.51-11.02 7.48-2.76 1.18-5.51 2.36-8.27 2.76-2.76.79-5.9 1.18-8.66 1.18-5.9 0-11.81-1.18-17.32-3.15a47.222 47.222 0 0 1-27.95-33.07c-.79-3.15-.79-5.9-.79-9.05l.79-9.05 2.76-8.66a47.21 47.21 0 0 1 25.19-24.41 43.288 43.288 0 0 1 34.25.79c3.94 1.97 7.87 4.33 11.02 7.48V47.64h15.75v115.34zm511.34-55.11c-1.57-3.94-3.54-7.09-6.3-10.23a28.327 28.327 0 0 0-20.86-9.05 30.312 30.312 0 0 0-27.95 18.89c-1.57 3.54-2.36 7.87-1.97 11.81 0 3.94.79 7.87 1.97 11.81 1.57 3.54 3.54 7.09 6.3 9.84a30.301 30.301 0 0 0 33.07 6.69c3.54-1.63 6.74-3.9 9.45-6.69 2.76-2.76 5.12-6.3 6.3-10.23l.79-2.36c1.18-3.15 1.57-6.3 1.57-9.84 0-3.15-.79-6.69-1.57-9.84-.39.79-.39 0-.79-.79M648.44 0c-66.31 0-120.06 53.75-120.06 120.06s53.75 120.06 120.06 120.06S768.5 186.37 768.5 120.06 714.75 0 648.44 0m44.09 162.97h-15.75v-9.45c-3.15 3.15-7.09 5.51-11.02 7.48-2.76 1.18-5.51 2.36-8.27 2.76-2.76.79-5.9 1.18-8.66 1.18-5.9 0-11.81-1.18-17.32-3.15a47.222 47.222 0 0 1-27.95-33.07c-.79-3.15-.79-5.9-.79-9.05l.79-9.05 2.76-8.66a47.21 47.21 0 0 1 25.19-24.41 43.288 43.288 0 0 1 34.25.79c3.94 1.97 7.87 4.33 11.02 7.48v-9.05h15.75v86.21zm-44.09 364.91c-66.31 0-120.06 53.75-120.06 120.06S582.13 768 648.44 768 768.5 714.25 768.5 647.94s-53.75-120.06-120.06-120.06m39.76 142.1l-.79 1.97-.39.79-.39.79-.39.79-.39.79-.39.79-.39.79-5.12 5.51-5.51 4.33c-3.94 2.36-8.27 3.94-12.6 5.12l-6.3 1.18-6.3.39c-3.94 0-7.87-.39-11.81-1.57-3.94-.79-7.87-2.36-11.02-4.33-3.54-1.97-6.69-4.33-9.84-7.09a34.596 34.596 0 0 1-7.48-9.45l12.99-7.87a19.64 19.64 0 0 0 5.12 6.3l6.69 5.12c2.36 1.57 5.12 2.36 7.48 3.15l8.27 1.18 4.72-.39 4.72-.79c3.15-.79 5.9-1.97 8.27-3.54 2.36-1.57 4.33-3.54 5.9-5.51l.39-.39.39-.39v-.39l.39-.39v-.79l.39-.79.39-3.15c0-1.18 0-2.76-.79-3.94l-2.36-3.54c-.79-1.18-1.97-1.97-3.54-2.36l-4.33-1.18h-32.67c-2.76 0-5.51-.39-7.87-1.18-2.76-.79-5.12-2.36-7.09-4.33a27.796 27.796 0 0 1-5.12-6.69c-1.18-2.76-1.97-5.51-1.97-8.27s.79-5.51 1.57-7.87c1.18-2.36 2.36-4.72 3.94-6.3 1.57-1.97 3.15-3.54 5.12-4.72l5.51-3.54 5.9-2.36 5.9-1.57 11.81-1.18c5.9 0 12.2 1.18 17.71 3.15 5.51 2.36 11.02 5.51 15.35 9.84l-10.63 10.63a39.52 39.52 0 0 0-10.23-7.09c-3.94-1.57-7.87-2.36-12.2-2.76-3.15 0-5.9.39-8.66 1.18-2.76.79-5.51 1.57-7.87 3.15l-3.15 2.36-2.36 2.36-1.18 2.36-.39 2.36.39 2.36 1.18 1.97 1.97 1.57 2.76.79h32.67c3.15 0 6.69.39 9.84 1.57 3.15 1.18 5.9 2.76 8.27 5.12 2.4 2.42 4.4 5.21 5.9 8.27 1.57 3.15 2.36 6.69 2.36 9.84-1.57 2.76-1.97 5.51-2.76 7.87M142.61 362.15a30.301 30.301 0 0 0-33.07-6.69c-3.54 1.63-6.74 3.9-9.45 6.69-2.76 2.76-5.12 6.3-6.3 10.23l-.79 2.36c-1.18 3.15-1.57 6.3-1.57 9.84 0 3.15.79 6.69 1.57 9.84l.79 2.36c1.57 3.94 3.54 7.09 6.3 10.23 5.39 5.8 12.95 9.08 20.86 9.05a30.312 30.312 0 0 0 27.95-18.89c1.66-3.7 2.34-7.77 1.97-11.81 0-3.94-.79-7.87-1.97-11.81-1.11-4.27-3.28-8.2-6.3-11.42m-21.64-98.39C54.65 263.71.87 317.43.84 383.74c-.03 66.31 53.69 120.09 120 120.12h.12c66.31 0 120.06-53.75 120.06-120.06s-53.75-120.06-120.06-120.06m44.87 129.12l-2.76 8.66a47.21 47.21 0 0 1-25.19 24.41c-8.25 3.31-17.32 4-25.98 1.97l-8.27-2.76c-3.94-1.97-7.87-4.33-11.02-7.48v9.45H76.86V311.77h15.75v38.18c3.15-3.15 7.09-5.51 11.02-7.48 2.76-1.18 5.51-2.36 8.27-2.76 2.76-.79 5.9-1.18 8.66-1.18 5.9 0 11.81 1.18 17.32 3.15a47.222 47.222 0 0 1 27.95 33.07c.79 2.76.79 5.9.79 9.05s0 5.9-.79 9.05m241.3-30.7c-9.15-9-22.8-11.63-34.64-6.69a30.736 30.736 0 0 0-16.93 16.53l-1.57 4.72H415l-1.57-4.72c-1.18-3.54-3.54-7.09-6.3-9.84m-22.43-98.41c-66.31 0-120.06 53.75-120.06 120.06s53.75 120.06 120.06 120.06 120.06-53.75 120.06-120.06-53.75-120.06-120.06-120.06m46.45 127.15H354l1.57 4.72c3.21 7.55 9.3 13.5 16.93 16.53a31.866 31.866 0 0 0 24.41 0c3.94-1.57 7.48-3.94 10.23-6.69 1.97-1.97 3.54-3.94 4.72-6.3l12.99 7.87c-1.97 3.54-4.72 6.3-7.48 9.05-4.33 4.33-9.45 7.48-15.35 9.45s-11.81 3.15-17.71 3.15-11.81-1.18-17.71-3.15c-5.51-1.97-10.63-5.51-15.35-9.45-4.33-3.94-7.87-9.05-10.63-14.56-1.18-2.76-2.36-5.9-2.76-8.66l-.39-1.97-.79-7.09.79-7.09.39-1.97 2.76-8.66c2.36-5.51 6.3-10.63 10.63-14.96 4.33-3.94 9.45-7.48 15.35-9.45a52.325 52.325 0 0 1 35.43 0c5.9 1.97 10.63 5.51 15.35 9.45 4.42 4.31 8.02 9.37 10.63 14.96 1.18 2.76 2.36 5.9 2.76 8.66l.39 1.97.79 7.09-.79 7.09" fill="#61656a"/><path d="M768.5 383.8c0 66.31-53.75 120.06-120.06 120.06S528.38 450.11 528.38 383.8s53.75-120.06 120.06-120.06S768.5 317.49 768.5 383.8m-120.06-83.84c-46.31-.03-83.87 37.49-83.9 83.8-.03 46.31 37.49 83.87 83.8 83.9h.1c46.31 0 83.84-37.55 83.84-83.85s-37.54-83.83-83.84-83.84" fill="#3f87c4"/><path d="M407.13 625.89c-9.15-9-22.8-11.63-34.64-6.69a30.736 30.736 0 0 0-16.93 16.53l-1.57 4.72H415l-1.57-4.72c-1.18-3.54-3.54-6.69-6.3-9.84m-22.43-98.01c-66.31 0-120.06 53.75-120.06 120.06S318.39 768 384.7 768s120.06-53.75 120.06-120.06-53.75-120.06-120.06-120.06m46.45 127.14H354l1.57 4.72c3.21 7.55 9.3 13.5 16.93 16.53a31.866 31.866 0 0 0 24.41 0c3.94-1.57 7.48-3.94 10.23-6.69 1.97-1.97 3.54-3.94 4.72-6.3l12.99 7.87c-1.97 3.54-4.72 6.3-7.48 9.05-4.3 4.32-9.56 7.55-15.35 9.45-5.51 1.97-11.81 3.15-17.71 3.15s-11.81-1.18-17.71-3.15c-5.51-1.97-10.63-5.51-15.35-9.45-4.33-3.94-7.87-9.05-10.63-14.56-1.18-2.76-2.36-5.9-2.76-8.66l-.39-1.97-.79-7.09.79-7.09.39-1.97 2.76-8.66c2.36-5.51 6.3-10.63 10.63-14.96 4.33-3.94 9.45-7.48 15.35-9.45a52.325 52.325 0 0 1 35.43 0c5.9 1.97 10.63 5.51 15.35 9.45 4.42 4.31 8.02 9.37 10.63 14.96 1.18 2.76 2.36 5.9 2.76 8.66l.39 1.97.79 7.09-.79 7.09" fill="#61656a"/></svg>