<?xml version="1.0" encoding="UTF-8"?>
<svg xmlns="http://www.w3.org/2000/svg" version="1.1" viewBox="0 0 850.4 850.4">
  <defs>
    <style>
      .cls-1 {
        fill: #61656a;
      }

      .cls-2 {
        fill: #3f87c4;
      }
    </style>
  </defs>
  <!-- Generator: Adobe Illustrator 28.7.8, SVG Export Plug-In . SVG Version: 1.2.0 Build 200)  -->
  <g>
    <g id="Layer_1">
      <path class="cls-1" d="M172.3,563.2c-63.6,0-115.3,51.6-115.3,115.3s51.6,115.3,115.3,115.3,115.3-51.6,115.3-115.3-51.6-115.3-115.3-115.3M191.5,720c-3,1.2-6.4,1.9-9.4,1.5-6.7.4-13.3-2.1-18.1-6.8-2.6-2.3-4.7-5.1-6-8.3-1.5-3.2-2.3-6.7-2.3-10.2v-38.9h-6.8v-13.6h6.8v-34.7h15.2v34.7h16.2v13.6h-16.2v38.9c0,1.5,0,2.7.8,4.1.4,1.5,1.2,2.7,2.3,3.7l3.7,2.7,4.5,1.2,4.5-1.2,3.7-2.7,9.8,10.6c-2.7,2.7-5.3,4.1-8.7,5.3M425.4,56.6c-63.6,0-115.3,51.6-115.3,115.3s51.6,115.3,115.3,115.3,115.3-51.6,115.3-115.3-51.6-115.3-115.3-115.3M433,213.1h-15.2v-82.7h15.2v82.7ZM433,116.7h-15.2v-13.6h15.2v13.6ZM198.3,160.2c-1.5-3.7-3.4-6.8-6-9.8-5.2-5.6-12.4-8.7-20.1-8.7-11.8,0-22.4,7.2-26.8,18.1-1.5,3.4-2.3,7.6-1.9,11.3,0,3.7.8,7.6,1.9,11.3,1.5,3.4,3.4,6.8,6,9.4,8.3,8.3,20.8,10.9,31.8,6.4,3.4-1.5,6.4-3.7,9-6.4,2.7-2.7,4.9-6,6-9.8l.8-2.3c1.2-3.1,1.5-6,1.5-9.4s-.8-6.4-1.5-9.4c-.4.8-.4,0-.8-.8M171.9,56.6c-63.6,0-115.3,51.6-115.3,115.3s51.6,115.3,115.3,115.3,115.3-51.6,115.3-115.3-51.6-115.3-115.3-115.3M214.2,213.1h-15.2v-9c-3,3-6.8,5.3-10.6,7.2-2.7,1.2-5.3,2.3-8,2.7-2.7.8-5.7,1.2-8.3,1.2-5.7,0-11.3-1.2-16.6-3-13.5-5.7-23.5-17.5-26.9-31.8-.8-3.1-.8-5.7-.8-8.7l.8-8.7,2.7-8.3c4.8-10.7,13.4-19,24.2-23.4,10.6-4.3,22.5-4,32.8.8,3.7,1.9,7.6,4.1,10.6,7.2v-36.7h15.2v110.6h0ZM704.9,160.2c-1.5-3.7-3.4-6.8-6-9.8-5.2-5.6-12.4-8.7-20.1-8.7-11.8,0-22.4,7.2-26.9,18.1-1.5,3.4-2.3,7.6-1.9,11.3,0,3.7.8,7.6,1.9,11.3,1.5,3.4,3.4,6.8,6,9.4,8.3,8.3,20.8,10.9,31.8,6.4,3.4-1.5,6.4-3.7,9.1-6.4,2.7-2.7,4.9-6,6-9.8l.8-2.3c1.2-3.1,1.5-6,1.5-9.4s-.8-6.4-1.5-9.4c-.4.8-.4,0-.8-.8M678.4,56.6c-63.6,0-115.3,51.6-115.3,115.3s51.6,115.3,115.3,115.3,115.3-51.6,115.3-115.3-51.6-115.3-115.3-115.3M720.8,213.1h-15.2v-9c-3.1,3-6.8,5.3-10.6,7.2-2.7,1.2-5.3,2.3-8,2.7-2.7.8-5.7,1.2-8.3,1.2-5.7,0-11.3-1.2-16.6-3-13.5-5.7-23.5-17.5-26.9-31.8-.8-3.1-.8-5.7-.8-8.7l.8-8.7,2.7-8.3c4.8-10.7,13.4-19,24.2-23.4,10.6-4.3,22.5-4,32.8.8,3.7,1.9,7.6,4.1,10.6,7.2v-8.7h15.2v82.7h0ZM678.4,563.2c-63.6,0-115.3,51.6-115.3,115.3s51.6,115.3,115.3,115.3,115.3-51.6,115.3-115.3-51.6-115.3-115.3-115.3M716.6,699.6l-.8,1.9-.4.8-.4.8-.4.8-.4.8-.4.8-.4.8-4.9,5.3-5.3,4.1c-3.7,2.3-8,3.7-12.1,4.9l-6,1.2-6,.4c-3.7,0-7.6-.4-11.3-1.5-3.7-.8-7.6-2.3-10.6-4.1-3.4-1.9-6.4-4.1-9.4-6.8-2.9-2.6-5.4-5.7-7.2-9.1l12.5-7.6c1.2,2.3,2.9,4.4,4.9,6l6.4,4.9c2.3,1.5,4.9,2.3,7.2,3.1l8,1.2,4.5-.4,4.5-.8c3.1-.8,5.7-1.9,8-3.4,2.3-1.5,4.1-3.4,5.7-5.3l.4-.4.4-.4v-.4l.4-.4v-.8l.4-.8.4-3.1c0-1.2,0-2.7-.8-3.7l-2.3-3.4c-.8-1.2-1.9-1.9-3.4-2.3l-4.1-1.2h-31.4c-2.7,0-5.3-.4-7.6-1.2-2.7-.8-4.9-2.3-6.8-4.1-1.9-1.9-3.6-4-4.9-6.4-1.2-2.7-1.9-5.3-1.9-8s.8-5.3,1.5-7.6c1.2-2.3,2.3-4.5,3.7-6,1.5-1.9,3.1-3.4,4.9-4.5l5.3-3.4,5.7-2.3,5.7-1.5,11.3-1.2c5.7,0,11.7,1.2,17,3.1,5.3,2.3,10.6,5.3,14.7,9.4l-10.2,10.2c-2.9-2.8-6.2-5.1-9.8-6.8-3.7-1.5-7.6-2.3-11.7-2.7-3.1,0-5.7.4-8.3,1.2s-5.3,1.5-7.6,3.1l-3.1,2.3-2.3,2.3-1.2,2.3-.4,2.3.4,2.3,1.2,1.9,1.9,1.5,2.7.8h31.4c3.1,0,6.4.4,9.4,1.5,3,1.2,5.7,2.7,8,4.9,2.3,2.3,4.2,5,5.7,8,1.5,3.1,2.3,6.4,2.3,9.4-1.5,2.7-1.9,5.3-2.7,7.6M193.1,404.1c-8.3-8.3-20.8-10.9-31.8-6.4-3.4,1.5-6.4,3.7-9,6.4-2.7,2.7-4.9,6-6,9.8l-.8,2.3c-1.2,3-1.5,6-1.5,9.4s.8,6.4,1.5,9.4l.8,2.3c1.5,3.7,3.4,6.8,6,9.8,5.2,5.6,12.4,8.7,20.1,8.6,11.8,0,22.4-7.2,26.9-18.1,1.6-3.6,2.2-7.5,1.9-11.3,0-3.7-.8-7.6-1.9-11.3-1.1-4.1-3.2-7.9-6-10.9M172.3,309.7c-63.6,0-115.3,51.5-115.3,115.2s51.5,115.3,115.2,115.3h0c63.6,0,115.3-51.6,115.3-115.3s-51.6-115.3-115.3-115.3M215.3,433.7l-2.7,8.3c-4.8,10.7-13.4,19-24.2,23.4-7.9,3.2-16.6,3.8-25,1.9l-8-2.7c-3.7-1.9-7.6-4.1-10.6-7.2v9.1h-15.1v-110.6h15.2v36.7c3.1-3,6.8-5.3,10.6-7.2,2.7-1.2,5.3-2.3,8-2.7,2.7-.8,5.7-1.2,8.3-1.2,5.7,0,11.3,1.2,16.6,3,13.5,5.7,23.5,17.5,26.8,31.8.8,2.7.8,5.7.8,8.6s0,5.7-.8,8.6M446.9,404.1c-8.7-8.6-21.9-11.1-33.2-6.4-7.3,2.9-13.1,8.6-16.2,15.8l-1.5,4.5h58.5l-1.5-4.5c-1.2-3.4-3.4-6.8-6-9.4M425.4,309.7c-63.6,0-115.3,51.6-115.3,115.3s51.6,115.3,115.3,115.3,115.3-51.6,115.3-115.3-51.6-115.3-115.3-115.3M469.9,431.8h-74.1l1.5,4.5c3.1,7.2,8.9,13,16.2,15.8,7.5,3.1,15.9,3.1,23.4,0,3.7-1.5,7.2-3.7,9.8-6.4s3.4-3.7,4.5-6l12.5,7.6c-1.9,3.4-4.5,6-7.2,8.6-4.1,4.1-9.1,7.2-14.8,9.1-5.7,1.9-11.3,3-17,3s-11.3-1.2-17-3c-5.3-1.9-10.2-5.3-14.8-9.1-4.1-3.7-7.6-8.6-10.2-14-1.2-2.7-2.3-5.7-2.7-8.3l-.4-1.9-.8-6.8.8-6.8.4-1.9,2.7-8.3c2.3-5.3,6-10.2,10.2-14.4,4.1-3.7,9.1-7.2,14.8-9.1,11-3.9,23-3.9,34,0,5.7,1.9,10.2,5.3,14.8,9.1,4.2,4.1,7.7,9,10.2,14.4,1.2,2.7,2.3,5.7,2.7,8.3l.4,1.9.8,6.8-.8,6.8"/>
      <path class="cls-2" d="M793.7,425c0,63.6-51.6,115.3-115.3,115.3s-115.3-51.6-115.3-115.3,51.6-115.3,115.3-115.3,115.3,51.6,115.3,115.3M678.4,344.5c-44.4,0-80.5,36-80.5,80.4s36,80.5,80.4,80.5,80.4-36,80.4-80.5-36-80.4-80.4-80.4"/>
      <path class="cls-1" d="M446.9,657.3c-8.7-8.6-21.9-11.1-33.2-6.4-7.3,2.9-13.1,8.6-16.2,15.8l-1.5,4.5h58.5l-1.5-4.5c-1.2-3.4-3.4-6.4-6-9.4M425.4,563.2c-63.6,0-115.3,51.6-115.3,115.3s51.6,115.3,115.3,115.3,115.3-51.6,115.3-115.3-51.6-115.3-115.3-115.3M469.9,685.2h-74.1l1.5,4.5c3.1,7.2,8.9,13,16.2,15.8,7.5,3.1,15.9,3.1,23.4,0,3.7-1.5,7.2-3.7,9.8-6.4,1.9-1.9,3.4-3.7,4.5-6l12.5,7.6c-1.9,3.4-4.5,6-7.2,8.6-4.1,4.1-9.2,7.2-14.8,9.1-5.3,1.9-11.3,3.1-17,3.1s-11.3-1.2-17-3.1c-5.3-1.9-10.2-5.3-14.8-9.1-4.1-3.7-7.6-8.6-10.2-14-1.2-2.7-2.3-5.7-2.7-8.3l-.4-1.9-.8-6.8.8-6.8.4-1.9,2.7-8.3c2.3-5.3,6-10.2,10.2-14.4,4.1-3.7,9.1-7.2,14.8-9.1,11-3.9,23-3.9,34,0,5.7,1.9,10.2,5.3,14.8,9.1,4.2,4.1,7.7,9,10.2,14.4,1.2,2.7,2.3,5.7,2.7,8.3l.4,1.9.8,6.8-.8,6.8"/>
    </g>
  </g>
</svg>