<svg viewBox="0 0 768 768" xmlns="http://www.w3.org/2000/svg"><path d="m120.5 527.9c-66.3 0-120.1 53.8-120.1 120.1s53.8 120.1 120.1 120.1 120.1-53.8 120.1-120.1-53.8-120.1-120.1-120.1m20.4 163.3c-3.1 1.2-6.7 2-9.8 1.6-7 .4-13.9-2.2-18.9-7.1-2.7-2.4-4.9-5.3-6.3-8.7-1.6-3.3-2.4-7-2.4-10.6v-40.4h-7v-14h7v-36h16v36h16v14h-16v40.4c0 1.6 0 2.8.8 4.3.4 1.6 1.2 2.8 2.4 3.9l3.9 2.8 4.7 1.2 4.7-1.2 3.9-2.8 10.2 11c-2.8 2.8-5.5 4.3-9.1 5.5m243.2-691.1c-66.3 0-120.1 53.8-120.1 120.1s53.8 120.1 120.1 120.1 120.1-53.8 120.1-120.1-53.8-120.1-120.1-120.1m8.3 163h-16v-86h16zm0-100h-16v-14h16zm-244.9 44.9c-1.6-3.9-3.5-7.1-6.3-10.2-5.4-5.8-12.9-9.1-20.9-9.1-12.3 0-23.3 7.5-27.9 18.9-1.6 3.5-2.4 7.9-2 11.8 0 3.9.8 7.9 2 11.8 1.6 3.5 3.5 7.1 6.3 9.8 8.6 8.7 21.7 11.4 33.1 6.7 3.5-1.6 6.7-3.9 9.4-6.7 2.8-2.8 5.1-6.3 6.3-10.2l.8-2.4c1.2-3.2 1.6-6.3 1.6-9.8s-.8-6.7-1.6-9.8c-.4.8-.4 0-.8-.8m-27.5-107.9c-66.3 0-120.1 53.8-120.1 120.1s53.8 120.1 120.1 120.1 120.1-53.8 120.1-120.1-53.8-120.1-120.1-120.1m44.4 163h-16v-9.4c-3.2 3.1-7.2 5.5-11.2 7.5-2.8 1.2-5.6 2.4-8.4 2.8-2.8.8-6 1.2-8.8 1.2-6 0-12-1.2-17.6-3.1-14.3-5.8-24.9-18.1-28.4-33-.8-3.1-.8-5.9-.8-9l.8-9 2.8-8.6c5-11 14.2-19.8 25.6-24.3 11.2-4.4 23.8-4.2 34.8.8 4 2 8 4.3 11.2 7.5v-38.1h16v115zm511-55.1c-1.6-3.9-3.5-7.1-6.3-10.2-5.4-5.8-12.9-9.1-20.9-9.1-12.3 0-23.3 7.5-28 18.9-1.6 3.5-2.4 7.9-2 11.8 0 3.9.8 7.9 2 11.8 1.6 3.5 3.5 7.1 6.3 9.8 8.6 8.7 21.7 11.4 33.1 6.7 3.5-1.6 6.7-3.9 9.5-6.7s5.1-6.3 6.3-10.2l.8-2.4c1.2-3.2 1.6-6.3 1.6-9.8s-.8-6.7-1.6-9.8c-.4.8-.4 0-.8-.8m-27.6-107.9c-66.3 0-120.1 53.8-120.1 120.1s53.8 120.1 120.1 120.1 120.1-53.8 120.1-120.1-53.8-120.1-120.1-120.1m44.6 163h-16v-9.4c-3.2 3.1-7.2 5.5-11.2 7.5-2.8 1.2-5.6 2.4-8.4 2.8-2.8.8-6 1.2-8.8 1.2-6 0-12-1.2-17.6-3.1-14.3-5.8-24.9-18.1-28.4-33-.8-3.1-.8-5.9-.8-9l.8-9 2.8-8.6c5-11 14.2-19.8 25.6-24.4 11.2-4.4 23.8-4.2 34.8.8 4 2 8 4.3 11.2 7.5v-9h16v86zm-44.6 364.9c-66.3 0-120.1 53.8-120.1 120.1s53.8 120.1 120.1 120.1 120.1-53.8 120.1-120.1-53.8-120.1-120.1-120.1m39.8 142.1-.8 2-.4.8-.4.8-.4.8-.4.8-.4.8-.4.8-5.1 5.5-5.5 4.3c-3.9 2.4-8.3 3.9-12.6 5.1l-6.3 1.2-6.3.4c-3.9 0-7.9-.4-11.8-1.6-3.9-.8-7.9-2.4-11-4.3-3.5-2-6.7-4.3-9.8-7.1-3-2.7-5.6-5.9-7.5-9.5l13-7.9c1.2 2.4 3 4.6 5.1 6.3l6.7 5.1c2.4 1.6 5.1 2.4 7.5 3.2l8.3 1.2 4.7-.4 4.7-.8c3.2-.8 5.9-2 8.3-3.5 2.4-1.6 4.3-3.5 5.9-5.5l.4-.4.4-.4v-.4l1-.4v-.8l-.2-.8.4-3.2c0-1.2 0-2.8-.8-3.9l-2.4-3.5c-.8-1.2-2-2-3.5-2.4l-4.3-1.3h-32.7c-2.8.1-5.5-.3-7.9-1.1-2.8-.8-5.1-2.4-7.1-4.3-2-2-3.8-4.2-5.1-6.7-1.2-2.8-2-5.5-2-8.3s.8-5.5 1.6-7.9c1.2-2.4 2.4-4.7 3.9-6.3 1.6-2 3.2-3.5 5.1-4.7l5.5-3.5 5.9-2.4 5.9-1.6 11.8-1.2c5.9 0 12.2 1.2 17.7 3.2 5.5 2.4 11 5.5 15.3 9.8l-10.6 10.6c-3-2.9-6.5-5.3-10.2-7.1-3.9-1.6-7.9-2.4-12.2-2.8-3.2 0-5.9.4-8.7 1.2s-5.5 1.6-7.9 3.2l-3.2 2.4-2.4 2.4-1.2 2.4-.4 2.4.4 2.4 1.2 2 2 1.6 2.8.5h32.7c3.2.3 6.7.7 9.8 1.9s5.9 2.8 8.3 5.1c2.4 2.4 4.4 5.2 5.9 8.3 1.6 3.2 2.4 6.7 2.4 9.8-1.6 2.8-2 5.5-2.8 7.9m-545.5-308.1c-8.6-8.7-21.7-11.4-33.1-6.7-3.5 1.6-6.7 3.9-9.4 6.7-2.8 2.8-5.1 6.3-6.3 10.2l-.8 2.4c-1.2 3.1-1.6 6.3-1.6 9.8s.8 6.7 1.6 9.8l.8 2.4c1.6 3.9 3.5 7.1 6.3 10.2 5.4 5.8 12.9 9.1 20.9 9 12.3 0 23.3-7.5 28-18.9 1.7-3.7 2.3-7.8 2-11.8 0-3.9-.8-7.9-2-11.8-1.1-4.3-3.3-8.2-6.3-11.4m-21.7-98.1c-66.3 0-120.1 53.7-120.1 120s53.7 120.1 120 120.1h.1c66.3 0 120.1-53.8 120.1-120.1s-53.8-120.1-120.1-120.1m46.4 129.1-2.8 8.6c-5 11-14.2 19.8-25.6 24.3-8.4 3.3-17.6 4-26.4 2l-8.4-2.8c-4-2-8-4.3-11.2-7.5v9.4h-16v-115h16v38.1c3.2-3.1 7.2-5.5 11.2-7.5 2.8-1.2 5.6-2.4 8.4-2.8 2.8-.8 6-1.2 8.8-1.2 6 0 12 1.2 17.6 3.1 14.3 5.8 24.9 18.1 28.4 33 .8 2.8.8 5.9.8 9s0 5.9-.8 9m239.7-30.2c-9.1-9-22.8-11.6-34.6-6.7-7.6 3-13.7 9-16.9 16.5l-1.6 4.7h61l-1.6-4.7c-1.2-3.5-3.5-7.1-6.3-9.8m-22.4-98.7c-66.3 0-120.1 53.8-120.1 120.1s53.8 120.1 120.1 120.1 120.1-53.8 120.1-120.1-53.8-120.1-120.1-120.1m46.3 127.3h-77l1.6 4.7c3.2 7.5 9.3 13.5 16.9 16.5 7.8 3.2 16.6 3.2 24.4 0 3.9-1.6 7.5-3.9 10.2-6.7s3.5-3.9 4.7-6.3l13 7.9c-2 3.5-4.7 6.3-7.5 9-4.3 4.3-9.5 7.5-15.4 9.5s-11.8 3.1-17.7 3.1-11.8-1.2-17.7-3.1c-5.5-2-10.6-5.5-15.4-9.5-4.3-3.9-7.9-9-10.6-14.6-1.2-2.8-2.4-5.9-2.8-8.7l-.4-2-.8-7.1.8-7.1.4-2 2.8-8.7c2.4-5.5 6.3-10.6 10.6-15 4.3-3.9 9.5-7.5 15.4-9.5 11.5-4.1 24-4.1 35.4 0 5.9 2 10.6 5.5 15.4 9.5 4.4 4.3 8 9.4 10.6 15 1.2 2.8 2.4 5.9 2.8 8.7l.4 2 .8 7.1-.8 7.1" fill="#61656a"/><path d="m768 383.8c0 66.3-53.8 120.1-120.1 120.1s-120.1-53.8-120.1-120.1 53.8-120.1 120.1-120.1 120.1 53.8 120.1 120.1m-120.1-83.5c-46.3 0-83.9 37.5-83.9 83.8s37.5 83.9 83.8 83.9c46.3 0 83.8-37.5 83.8-83.9s-37.5-83.8-83.8-83.8" fill="#3f87c4"/><path d="m406.6 625.4c-9.1-9-22.8-11.6-34.6-6.7-7.6 3-13.7 9-16.9 16.5l-1.6 4.7h61l-1.6-4.7c-1.2-3.5-3.5-6.7-6.3-9.8m-22.4-97.5c-66.3 0-120.1 53.8-120.1 120.1s53.8 120.1 120.1 120.1 120.1-53.8 120.1-120.1-53.8-120.1-120.1-120.1m46.3 127.1h-77l1.6 4.7c3.2 7.5 9.3 13.5 16.9 16.5 7.8 3.2 16.6 3.2 24.4 0 3.9-1.6 7.5-3.9 10.2-6.7 2-2 3.5-3.9 4.7-6.3l13 7.9c-2 3.5-4.7 6.3-7.5 9-4.3 4.3-9.6 7.5-15.4 9.5-5.5 2-11.8 3.2-17.7 3.2s-11.8-1.2-17.7-3.2c-5.5-2-10.6-5.5-15.4-9.5-4.3-3.9-7.9-9-10.6-14.6-1.2-2.8-2.4-5.9-2.8-8.7l-.4-2-.8-7.1.8-7.1.4-2 2.8-8.7c2.4-5.5 6.3-10.6 10.6-15 4.3-3.9 9.5-7.5 15.4-9.5 11.5-4.1 24-4.1 35.4 0 5.9 2 10.6 5.5 15.4 9.5 4.4 4.3 8 9.4 10.6 15 1.2 2.8 2.4 5.9 2.8 8.7l.4 2 .8 7.1-.8 7.1" fill="#61656a"/></svg>